P3
9 1
255
255 0 0
255 128 0
255 255 0
0 255 0
0 0 255
128 0 128
128 64 0
0 0 0
255 255 255

